<svg xmlns="http://www.w3.org/2000/svg" enable-background="new 0 0 24 24" viewBox="0 0 24 24" id="update">
  <g id="_icons">
    <path d="M6.3027 19.0723c.0182.0145.0389.0251.0572.0395.0989.0764.2059.1404.3078.2126.2282.1633.4567.3256.6984.4654.0076.0043.0158.0074.0234.0118.3028.174.6121.3362.9338.4719l.1055.0439c.1494.0625.2949.123.46.1807.4258.1426.7881.2412 1.1348.3115.2216.0458.4321.0803.6324.1066.0306.0042.0619.0052.0926.009.1402.0166.2803.0329.4059.0396C11.3877 20.9883 11.6328 21 11.8662 21c4.9629 0 9-4.0371 9-9 0-.5527-.4473-1-1-1s-1 .4473-1 1c0 3.8594-3.1406 7-7 7-.2286 0-.4537-.0232-.6787-.0453-.1628-.0131-.3386-.0408-.5162-.0709-.1573-.0275-.3143-.0566-.4687-.0946-.114-.0276-.2229-.0588-.3326-.0913-.5222-.1563-1.0264-.3642-1.4964-.6348-.0024-.0014-.0049-.0023-.0073-.0037-.1808-.1043-.35-.2271-.5209-.3471-.0887-.0632-.1815-.1176-.2678-.1854-.0962-.0745-.1831-.1607-.2755-.2402-.1412-.1229-.2852-.2433-.4185-.3757-.0662-.0669-.1237-.1426-.1873-.2123l1.7911-.3227c.543-.0986.9043-.6182.8066-1.1621-.0986-.543-.6113-.9043-1.1621-.8066l-4.1758.7529c-.2607.0469-.4922.1963-.6436.4141s-.21.4863-.1631.748l.7529 4.1748c.0879.4834.5088.8223.9834.8223.0586 0 .1182-.0049.1787-.0156.543-.0986.9043-.6182.8066-1.1621L5.559 18.4134c.0076.0074.0164.0135.024.0209C5.8333 18.6768 6.069 18.8892 6.3027 19.0723zM17.5635 4.9277c-.0176-.014-.0375-.0242-.0552-.0381-.1038-.0802-.2159-.1476-.323-.2231-.2233-.1592-.4464-.3182-.6826-.455-.0173-.01-.0362-.0171-.0536-.027-.2944-.1678-.5939-.3262-.9061-.4579l-.1055-.0439c-.1494-.0625-.2949-.123-.46-.1807-.4268-.1426-.7891-.2422-1.1357-.3115-.2206-.0458-.4309-.0803-.6312-.1067-.0305-.0042-.0615-.0051-.092-.009-.1403-.0166-.2805-.0329-.4066-.0396C12.4785 3.0117 12.2334 3 12 3c-4.9629 0-9 4.0371-9 9 0 .5527.4473 1 1 1s1-.4473 1-1c0-3.8594 3.1406-7 7-7 .2286 0 .4537.0232.6787.0453.1628.0131.3386.0408.5162.0709.1574.0275.3143.0566.4687.0946.114.0277.2229.0589.3326.0913.7304.2187 1.4163.556 2.0366.9936.0837.0599.1718.1113.2534.1754.0956.074.1819.1599.2738.2388.1434.1248.289.247.4257.3829.0649.0658.1216.1401.184.2086L15.3789 7.624c-.543.0986-.9043.6182-.8066 1.1621.0879.4834.5088.8223.9834.8223.0586 0 .1182-.0049.1787-.0156l4.1758-.7529c.2607-.0469.4922-.1963.6436-.4141s.21-.4863.1631-.748l-.7529-4.1748c-.0986-.543-.6133-.9062-1.1621-.8066-.543.0986-.9043.6182-.8066 1.1621l.3121 1.728c-.0121-.012-.0262-.0216-.0384-.0335C18.0247 5.3171 17.7936 5.109 17.5635 4.9277z"></path>
  </g>
</svg>
